<svg version="1.2" xmlns="http://www.w3.org/2000/svg" viewBox="0 0 1080 1080" width="1080" height="1080">
	<title>New Project</title>
	<style>
		.s0 { fill: #000000 } 
	</style>
	<path id="Shape 1" class="s0" d="m483.1 85c0 0 134.1-4.5 150.6 135.5 16.5 140-21.9 186-60.2 183.4-38.4-2.6-119.7-30.8-143.7-131.4-24.1-100.6-17.1-173.3 53.3-187.5zm273.7 91.7c0 0 134.1-4.5 150.6 135.5 16.4 140-21.9 186-60.2 183.4-38.4-2.7-119.7-30.8-143.7-131.4-24.1-100.6-17.1-173.3 53.3-187.5zm-543.7 49.7c0 0 124.7-49.4 187.4 76.8 62.7 126.3 42.1 182.5 5.2 193-37 10.4-123.1 11.3-179.6-75.3-56.6-86.5-74.5-157.4-13-194.5zm-64.5 296.9c0 0 116.3-66.9 196.4 49.1 80.2 116 67.9 174.5 32.8 190.2-35.1 15.7-120.1 28.9-188.5-48.7-68.4-77.6-96.3-145.1-40.7-190.6zm338.6-45.5c0 0 36-44.4 97.2-28.8 61.2 15.6 286.2 105.8 299.7 121.8 13.5 16 121.1 116.1 57.5 209.4-63.6 93.3-101.6 51.7-143.7 72.5-42.1 20.8-134.7 114.7-175.2 134.1-40.4 19.5-137.3 4.9-162.8-67-25.5-71.9 24.7-210.2 10.9-272.3-13.8-62.2 16.4-169.7 16.4-169.7z"/>
</svg>