<svg width="403" height="105" viewBox="0 0 403 105" fill="none" xmlns="http://www.w3.org/2000/svg">
<path d="M0.264001 103V13.4H38.92C44.552 13.4 49.544 14.68 53.896 17.24C58.3333 19.8 61.832 23.2987 64.392 27.736C67.0373 32.1733 68.36 37.1653 68.36 42.712C68.36 48.5147 67.0373 53.72 64.392 58.328C61.832 62.8507 58.3333 66.4347 53.896 69.08C49.544 71.7253 44.552 73.048 38.92 73.048H22.024V103H0.264001ZM21.64 53.976H35.848C37.7253 53.976 39.432 53.5067 40.968 52.568C42.504 51.6293 43.7413 50.3493 44.68 48.728C45.6187 47.1067 46.088 45.2293 46.088 43.096C46.088 40.8773 45.6187 39 44.68 37.464C43.7413 35.928 42.504 34.7333 40.968 33.88C39.432 33.0267 37.7253 32.6 35.848 32.6H21.64V53.976ZM113.972 104.28C106.463 104.28 99.9347 102.787 94.388 99.8C88.8413 96.728 84.532 92.5893 81.46 87.384C78.388 82.0933 76.852 76.0773 76.852 69.336C76.852 64.1307 77.7053 59.352 79.412 55C81.1187 50.648 83.508 46.8933 86.58 43.736C89.652 40.4933 93.2787 38.0187 97.46 36.312C101.727 34.52 106.377 33.624 111.412 33.624C116.191 33.624 120.543 34.4773 124.468 36.184C128.479 37.8907 131.935 40.28 134.836 43.352C137.737 46.424 139.956 50.0507 141.492 54.232C143.028 58.4133 143.711 62.9787 143.54 67.928L143.412 73.432H89.268L86.324 61.912H126.772L124.596 64.344V61.784C124.425 59.6507 123.743 57.7733 122.548 56.152C121.439 54.4453 119.945 53.1227 118.068 52.184C116.191 51.2453 114.057 50.776 111.668 50.776C108.34 50.776 105.481 51.4587 103.092 52.824C100.788 54.104 99.0387 56.024 97.844 58.584C96.6493 61.0587 96.052 64.1307 96.052 67.8C96.052 71.5547 96.82 74.84 98.356 77.656C99.9773 80.3867 102.281 82.52 105.268 84.056C108.34 85.592 111.967 86.36 116.148 86.36C119.049 86.36 121.609 85.9333 123.828 85.08C126.132 84.2267 128.607 82.776 131.252 80.728L140.852 94.296C138.207 96.6 135.391 98.4773 132.404 99.928C129.417 101.379 126.345 102.445 123.188 103.128C120.116 103.896 117.044 104.28 113.972 104.28ZM162.22 103V17.88H182.7V103H162.22ZM150.188 52.952V35.032H195.884V52.952H150.188Z" fill="#555DF2"/>
<path d="M208.74 103V35.032H229.22V103H208.74ZM218.98 21.592C215.14 21.592 212.111 20.696 209.892 18.904C207.759 17.0267 206.692 14.3813 206.692 10.968C206.692 7.89599 207.801 5.37866 210.02 3.41599C212.239 1.45333 215.225 0.471992 218.98 0.471992C222.82 0.471992 225.807 1.41066 227.94 3.28799C230.073 5.08 231.14 7.64 231.14 10.968C231.14 14.1253 230.031 16.6853 227.812 18.648C225.679 20.6107 222.735 21.592 218.98 21.592ZM254.095 103V17.88H274.575V103H254.095ZM242.063 52.952V35.032H287.759V52.952H242.063ZM330.838 104.28C323.755 104.28 317.441 102.744 311.894 99.672C306.433 96.6 302.081 92.4187 298.838 87.128C295.681 81.8373 294.102 75.7787 294.102 68.952C294.102 62.1253 295.681 56.0667 298.838 50.776C302.081 45.4853 306.433 41.304 311.894 38.232C317.441 35.16 323.755 33.624 330.838 33.624C337.921 33.624 344.193 35.16 349.654 38.232C355.201 41.304 359.553 45.4853 362.71 50.776C365.867 56.0667 367.446 62.1253 367.446 68.952C367.446 75.7787 365.867 81.8373 362.71 87.128C359.553 92.4187 355.201 96.6 349.654 99.672C344.193 102.744 337.921 104.28 330.838 104.28ZM330.838 86.616C333.91 86.616 336.641 85.848 339.03 84.312C341.419 82.776 343.297 80.6853 344.662 78.04C346.027 75.3947 346.667 72.3653 346.582 68.952C346.667 65.5387 346.027 62.5093 344.662 59.864C343.297 57.1333 341.419 55 339.03 53.464C336.641 51.928 333.91 51.16 330.838 51.16C327.766 51.16 324.993 51.928 322.518 53.464C320.129 55 318.251 57.1333 316.886 59.864C315.521 62.5093 314.881 65.5387 314.966 68.952C314.881 72.3653 315.521 75.3947 316.886 78.04C318.251 80.6853 320.129 82.776 322.518 84.312C324.993 85.848 327.766 86.616 330.838 86.616ZM385.062 70.36C384.379 65.1547 383.697 59.7787 383.014 54.232C382.331 48.6853 381.777 43.1813 381.35 37.72C380.923 32.2587 380.71 27.0107 380.71 21.976V11.992H402.342V21.976C402.342 27.096 402.129 32.4293 401.702 37.976C401.275 43.5227 400.721 49.0693 400.038 54.616C399.355 60.0773 398.63 65.3253 397.862 70.36H385.062ZM391.462 104.408C387.963 104.408 385.233 103.427 383.27 101.464C381.307 99.5013 380.326 96.6853 380.326 93.016C380.326 89.6027 381.35 86.8293 383.398 84.696C385.446 82.5627 388.134 81.496 391.462 81.496C394.961 81.496 397.649 82.52 399.526 84.568C401.489 86.5307 402.47 89.3467 402.47 93.016C402.47 96.344 401.446 99.0747 399.398 101.208C397.35 103.341 394.705 104.408 391.462 104.408Z" fill="#22222F"/>
</svg>
